<svg width="61" height="61" viewBox="0 0 61 61" fill="none"
     xmlns="http://www.w3.org/2000/svg">
  <g filter="url(#filter0_d)">
    <circle cx="30.5" cy="30.5" r="15.5" fill="#740C98" />
    <circle cx="30.5" cy="30.5" r="14.5" stroke="#C729FF" stroke-width="2" />
  </g>
  <path d="M32.2984 27.6903H34.158V32.6923H35.7725V25.1578C35.7725 25.071 35.6989 25 35.609 25H34.624C34.5484 25 34.4809 25.0513 34.4666 25.1243C34.4135 25.3629 34.3256 25.5641 34.203 25.7337C34.0559 25.9329 33.8781 26.0927 33.6655 26.215C33.455 26.3373 33.2159 26.4221 32.9503 26.4694C32.7377 26.5069 32.5211 26.5286 32.2963 26.5306C32.2064 26.5325 32.1349 26.6016 32.1349 26.6884V27.5325C32.1349 27.6193 32.2084 27.6903 32.2984 27.6903ZM37.8365 33.7377H31.624C31.5341 33.7377 31.4605 33.8087 31.4605 33.8955V34.8422C31.4605 34.929 31.5341 35 31.624 35H37.8365C37.9264 35 38 34.929 38 34.8422V33.8955C38 33.8087 37.9264 33.7377 37.8365 33.7377ZM29.1083 26.0592C28.7793 25.6844 28.4053 25.4201 27.9802 25.2623C27.545 25.1006 27.079 25.0197 26.5824 25.0197C26.094 25.0197 25.6342 25.1006 25.1989 25.2623C24.7738 25.4201 24.4019 25.6844 24.079 26.0572C23.7541 26.4339 23.4925 26.9389 23.2963 27.5759C23.1001 28.217 23 29.0158 23 29.9724C23 30.9566 23.1001 31.7751 23.2963 32.426C23.4925 33.073 23.7541 33.5838 24.079 33.9586C24.4019 34.3314 24.7738 34.5957 25.1989 34.7535C25.6342 34.9152 26.094 34.9961 26.5824 34.9961C27.0811 34.9961 27.547 34.9152 27.9802 34.7535C28.4053 34.5957 28.7813 34.3314 29.1083 33.9566C29.4373 33.5819 29.701 33.071 29.8971 32.4241C30.0933 31.7732 30.1935 30.9546 30.1935 29.9704C30.1935 29.0158 30.0933 28.217 29.8971 27.574C29.703 26.9408 29.4394 26.4359 29.1083 26.0592ZM28.5054 31.0237C28.485 31.4458 28.4196 31.8521 28.3113 32.2446C28.1989 32.6529 28.015 33.0039 27.7595 33.2978C27.4816 33.6193 27.0811 33.7771 26.5824 33.7771C26.092 33.7771 25.6996 33.6174 25.4237 33.2959C25.1744 33.0039 24.9925 32.6529 24.8801 32.2446C24.7718 31.8521 24.7064 31.4438 24.686 31.0237C24.6655 30.6134 24.6553 30.2643 24.6553 29.9744C24.6553 29.8008 24.6574 29.5917 24.6635 29.3471C24.6676 29.0966 24.686 28.8383 24.7166 28.574C24.7473 28.3057 24.7984 28.0394 24.8719 27.7751C24.9475 27.503 25.0518 27.2564 25.1866 27.0375C25.3277 26.8087 25.5095 26.6213 25.7323 26.4793C25.9653 26.3294 26.2493 26.2564 26.5804 26.2564C26.9094 26.2564 27.1955 26.3294 27.4326 26.4773C27.6594 26.6193 27.8474 26.8047 27.9925 27.0335C28.1335 27.2544 28.2398 27.503 28.3113 27.7771C28.3787 28.0375 28.4298 28.3018 28.4646 28.568C28.5014 28.8343 28.5218 29.0927 28.5259 29.3452C28.53 29.5897 28.5341 29.7988 28.5341 29.9724C28.5361 30.2643 28.5259 30.6134 28.5054 31.0237Z"
        fill="white" />
  <defs>
    <filter id="filter0_d" x="0" y="0" width="61" height="61"
            filterUnits="userSpaceOnUse" color-interpolation-filters="sRGB">
      <feFlood flood-opacity="0" result="BackgroundImageFix" />
      <feColorMatrix in="SourceAlpha" type="matrix"
                     values="0 0 0 0 0 0 0 0 0 0 0 0 0 0 0 0 0 0 127 0" />
      <feMorphology radius="1" operator="dilate" in="SourceAlpha"
                    result="effect1_dropShadow" />
      <feOffset />
      <feGaussianBlur stdDeviation="7" />
      <feColorMatrix type="matrix"
                     values="0 0 0 0 0.780392 0 0 0 0 0.160784 0 0 0 0 1 0 0 0 0.62 0" />
      <feBlend mode="normal" in2="BackgroundImageFix"
               result="effect1_dropShadow" />
      <feBlend mode="normal" in="SourceGraphic" in2="effect1_dropShadow"
               result="shape" />
    </filter>
  </defs>
</svg>