<svg width="61" height="61" viewBox="0 0 61 61" fill="none"
     xmlns="http://www.w3.org/2000/svg">
  <g filter="url(#filter0_d)">
    <circle cx="30.5" cy="30.5" r="15.5" fill="#A66402" />
    <circle cx="30.5" cy="30.5" r="14.5" stroke="#FFAA29" stroke-width="2" />
  </g>
  <path d="M28 23C27.4696 23 26.9609 23.2107 26.5858 23.5858C26.2107 23.9609 26 24.4696 26 25V28.5C26 28.6326 26.0527 28.7598 26.1464 28.8536C26.2402 28.9473 26.3674 29 26.5 29C26.6326 29 26.7598 28.9473 26.8536 28.8536C26.9473 28.7598 27 28.6326 27 28.5V25C27 24.7348 27.1054 24.4804 27.2929 24.2929C27.4804 24.1054 27.7348 24 28 24H31V26.5C31 26.8978 31.158 27.2794 31.4393 27.5607C31.7206 27.842 32.1022 28 32.5 28H35V35C35 35.2652 34.8946 35.5196 34.7071 35.7071C34.5196 35.8946 34.2652 36 34 36H28C27.7348 36 27.4804 35.8946 27.2929 35.7071C27.1054 35.5196 27 35.2652 27 35V33H26V35C26 35.5304 26.2107 36.0391 26.5858 36.4142C26.9609 36.7893 27.4696 37 28 37H34C34.5304 37 35.0391 36.7893 35.4142 36.4142C35.7893 36.0391 36 35.5304 36 35V27.414C35.9997 27.0163 35.8414 26.635 35.56 26.354L32.647 23.439C32.5076 23.2997 32.3422 23.1893 32.1602 23.114C31.9781 23.0386 31.783 22.9999 31.586 23H28ZM34.793 27H32.5C32.3674 27 32.2402 26.9473 32.1464 26.8536C32.0527 26.7598 32 26.6326 32 26.5V24.207L34.793 27Z"
        fill="white" />
  <path d="M29.479 28.356C29.4502 28.2601 29.3933 28.175 29.3155 28.1118C29.2378 28.0487 29.1429 28.0103 29.0432 28.0016C28.9434 27.993 28.8433 28.0146 28.7559 28.0635C28.6685 28.1124 28.5978 28.1864 28.553 28.276L27.19 31H25.5C25.3674 31 25.2402 31.0527 25.1464 31.1464C25.0527 31.2402 25 31.3674 25 31.5C25 31.6326 25.0527 31.7598 25.1464 31.8536C25.2402 31.9473 25.3674 32 25.5 32H27.5C27.5928 32 27.6837 31.9742 27.7627 31.9254C27.8416 31.8767 27.9054 31.8069 27.947 31.724L28.883 29.851L30.021 33.644C30.0476 33.7326 30.0983 33.8121 30.1674 33.8737C30.2365 33.9352 30.3214 33.9763 30.4125 33.9925C30.5036 34.0087 30.5974 33.9992 30.6835 33.9652C30.7696 33.9313 30.8445 33.8741 30.9 33.8L32.25 32H33.5C33.6326 32 33.7598 31.9473 33.8536 31.8536C33.9473 31.7598 34 31.6326 34 31.5C34 31.3674 33.9473 31.2402 33.8536 31.1464C33.7598 31.0527 33.6326 31 33.5 31H32C31.9224 31 31.8458 31.0181 31.7764 31.0528C31.707 31.0875 31.6466 31.1379 31.6 31.2L30.694 32.408L29.479 28.356Z"
        fill="white" />
  <path d="M28 23C27.4696 23 26.9609 23.2107 26.5858 23.5858C26.2107 23.9609 26 24.4696 26 25V28.5C26 28.6326 26.0527 28.7598 26.1464 28.8536C26.2402 28.9473 26.3674 29 26.5 29C26.6326 29 26.7598 28.9473 26.8536 28.8536C26.9473 28.7598 27 28.6326 27 28.5V25C27 24.7348 27.1054 24.4804 27.2929 24.2929C27.4804 24.1054 27.7348 24 28 24H31V26.5C31 26.8978 31.158 27.2794 31.4393 27.5607C31.7206 27.842 32.1022 28 32.5 28H35V35C35 35.2652 34.8946 35.5196 34.7071 35.7071C34.5196 35.8946 34.2652 36 34 36H28C27.7348 36 27.4804 35.8946 27.2929 35.7071C27.1054 35.5196 27 35.2652 27 35V33H26V35C26 35.5304 26.2107 36.0391 26.5858 36.4142C26.9609 36.7893 27.4696 37 28 37H34C34.5304 37 35.0391 36.7893 35.4142 36.4142C35.7893 36.0391 36 35.5304 36 35V27.414C35.9997 27.0163 35.8414 26.635 35.56 26.354L32.647 23.439C32.5076 23.2997 32.3422 23.1893 32.1602 23.114C31.9781 23.0386 31.783 22.9999 31.586 23H28ZM34.793 27H32.5C32.3674 27 32.2402 26.9473 32.1464 26.8536C32.0527 26.7598 32 26.6326 32 26.5V24.207L34.793 27Z"
        stroke="white" stroke-width="0.4" />
  <path d="M29.479 28.356C29.4502 28.2601 29.3933 28.175 29.3155 28.1118C29.2378 28.0487 29.1429 28.0103 29.0432 28.0016C28.9434 27.993 28.8433 28.0146 28.7559 28.0635C28.6685 28.1124 28.5978 28.1864 28.553 28.276L27.19 31H25.5C25.3674 31 25.2402 31.0527 25.1464 31.1464C25.0527 31.2402 25 31.3674 25 31.5C25 31.6326 25.0527 31.7598 25.1464 31.8536C25.2402 31.9473 25.3674 32 25.5 32H27.5C27.5928 32 27.6837 31.9742 27.7627 31.9254C27.8416 31.8767 27.9054 31.8069 27.947 31.724L28.883 29.851L30.021 33.644C30.0476 33.7326 30.0983 33.8121 30.1674 33.8737C30.2365 33.9352 30.3214 33.9763 30.4125 33.9925C30.5036 34.0087 30.5974 33.9992 30.6835 33.9652C30.7696 33.9313 30.8445 33.8741 30.9 33.8L32.25 32H33.5C33.6326 32 33.7598 31.9473 33.8536 31.8536C33.9473 31.7598 34 31.6326 34 31.5C34 31.3674 33.9473 31.2402 33.8536 31.1464C33.7598 31.0527 33.6326 31 33.5 31H32C31.9224 31 31.8458 31.0181 31.7764 31.0528C31.707 31.0875 31.6466 31.1379 31.6 31.2L30.694 32.408L29.479 28.356Z"
        stroke="white" stroke-width="0.4" />
  <defs>
    <filter id="filter0_d" x="0" y="0" width="61" height="61"
            filterUnits="userSpaceOnUse" color-interpolation-filters="sRGB">
      <feFlood flood-opacity="0" result="BackgroundImageFix" />
      <feColorMatrix in="SourceAlpha" type="matrix"
                     values="0 0 0 0 0 0 0 0 0 0 0 0 0 0 0 0 0 0 127 0" />
      <feMorphology radius="1" operator="dilate" in="SourceAlpha"
                    result="effect1_dropShadow" />
      <feOffset />
      <feGaussianBlur stdDeviation="7" />
      <feColorMatrix type="matrix"
                     values="0 0 0 0 1 0 0 0 0 0.666667 0 0 0 0 0.160784 0 0 0 0.62 0" />
      <feBlend mode="normal" in2="BackgroundImageFix"
               result="effect1_dropShadow" />
      <feBlend mode="normal" in="SourceGraphic" in2="effect1_dropShadow"
               result="shape" />
    </filter>
  </defs>
</svg>