<svg width="61" height="61" viewBox="0 0 61 61" fill="none"
     xmlns="http://www.w3.org/2000/svg">
  <g filter="url(#filter0_d)">
    <circle cx="30.5" cy="30.5" r="15.5" fill="#045004" />
    <circle cx="30.5" cy="30.5" r="14.5" stroke="#3EB03F" stroke-width="2" />
  </g>
  <path d="M25.3611 25.6315C26.6398 24.5781 28.2906 23.9975 30 24C33.8661 24 37 26.9101 37 30.5C37.0023 31.8285 36.5641 33.1255 35.7449 34.2147L33.85 30.5H35.6C35.6 29.4661 35.2681 28.4556 34.6467 27.5977C34.0252 26.7398 33.1425 26.0734 32.1112 25.6836C31.0799 25.2938 29.9469 25.1983 28.8569 25.4094C27.7669 25.6204 26.7694 26.1284 25.9918 26.8685L25.3618 25.6322L25.3611 25.6315ZM34.6389 35.3685C33.3602 36.4219 31.7094 37.0025 30 37C26.1339 37 23 34.0899 23 30.5C23 29.1188 23.4641 27.8383 24.2551 26.7853L26.15 30.5H24.4C24.4 31.5339 24.7319 32.5444 25.3533 33.4023C25.9747 34.2602 26.8575 34.9266 27.8888 35.3164C28.9201 35.7062 30.0531 35.8017 31.1431 35.5906C32.2331 35.3796 33.2306 34.8716 34.0082 34.1315L34.6382 35.3678L34.6389 35.3685ZM27.55 31.8H31.4C31.4928 31.8 31.5818 31.7658 31.6475 31.7048C31.7131 31.6439 31.75 31.5612 31.75 31.475C31.75 31.3888 31.7131 31.3061 31.6475 31.2452C31.5818 31.1842 31.4928 31.15 31.4 31.15H28.6C28.1359 31.15 27.6907 30.9788 27.3626 30.674C27.0344 30.3693 26.85 29.956 26.85 29.525C26.85 29.094 27.0344 28.6807 27.3626 28.376C27.6907 28.0712 28.1359 27.9 28.6 27.9H29.3V27.25H30.7V27.9H32.45V29.2H28.6C28.5072 29.2 28.4181 29.2342 28.3525 29.2952C28.2869 29.3561 28.25 29.4388 28.25 29.525C28.25 29.6112 28.2869 29.6939 28.3525 29.7548C28.4181 29.8158 28.5072 29.85 28.6 29.85H31.4C31.8641 29.85 32.3092 30.0212 32.6374 30.326C32.9656 30.6307 33.15 31.044 33.15 31.475C33.15 31.906 32.9656 32.3193 32.6374 32.624C32.3092 32.9288 31.8641 33.1 31.4 33.1H30.7V33.75H29.3V33.1H27.55V31.8Z"
        fill="white" />
  <defs>
    <filter id="filter0_d" x="0" y="0" width="61" height="61"
            filterUnits="userSpaceOnUse" color-interpolation-filters="sRGB">
      <feFlood flood-opacity="0" result="BackgroundImageFix" />
      <feColorMatrix in="SourceAlpha" type="matrix"
                     values="0 0 0 0 0 0 0 0 0 0 0 0 0 0 0 0 0 0 127 0" />
      <feMorphology radius="1" operator="dilate" in="SourceAlpha"
                    result="effect1_dropShadow" />
      <feOffset />
      <feGaussianBlur stdDeviation="7" />
      <feColorMatrix type="matrix"
                     values="0 0 0 0 0.442271 0 0 0 0 0.8875 0 0 0 0 0.369792 0 0 0 0.62 0" />
      <feBlend mode="normal" in2="BackgroundImageFix"
               result="effect1_dropShadow" />
      <feBlend mode="normal" in="SourceGraphic" in2="effect1_dropShadow"
               result="shape" />
    </filter>
  </defs>
</svg>