<svg width="28" height="30" viewBox="0 0 28 30" fill="none"
     xmlns="http://www.w3.org/2000/svg">
  <path d="M25.5869 7.53259C24.6028 7.1367 23.5113 7.05422 22.4536 7.20818C18.1384 7.82951 14.9316 8.32438 14.9316 8.32438L17.7934 1.65469C17.8782 1.69867 17.9743 1.72617 18.0762 1.72617C18.4212 1.72617 18.7039 1.45124 18.7039 1.11583C18.7039 0.780424 18.4268 0.5 18.0818 0.5C17.7368 0.5 17.454 0.774925 17.454 1.11033C17.454 1.34127 17.5898 1.53922 17.7821 1.64369L13.2349 8.63779L10.605 8.95671L6.07478 3.76061C6.18224 3.68364 6.25011 3.56267 6.25011 3.42521C6.25011 3.19977 6.05781 3.01282 5.82593 3.01282C5.59405 3.01282 5.40176 3.19977 5.40176 3.42521C5.40176 3.65065 5.59405 3.83759 5.82593 3.83759C5.91642 3.83759 6.00125 3.8101 6.06912 3.76061L9.45123 9.11616L5.74676 9.73199C4.67218 9.90795 3.64283 10.3423 2.8171 11.0296C2.07055 11.651 1.32966 12.5362 1.13171 13.6909L0.882867 23.3463C0.854588 24.5395 1.16565 25.7326 1.87261 26.7114C1.94048 26.8049 2.014 26.8983 2.09318 26.9918C2.90195 27.965 4.12358 28.5204 5.40742 28.6084C9.30984 28.8888 19.7785 29.5211 23.3812 29.7411C24.7612 29.8235 26.1412 29.3342 27.0404 28.3169C27.4703 27.8331 27.8209 27.2062 27.9566 26.409V11.1946C27.9623 11.1946 28.5052 8.69827 25.5869 7.53259ZM22.4876 27.6406C19.4788 27.6406 4.03873 26.5244 4.03873 26.5244C4.03873 26.5244 2.12145 26.2605 1.79342 24.556C1.79342 22.5875 1.79342 14.1803 1.79342 14.1803C1.79342 14.1803 1.91785 12.3713 4.03873 12.0524L22.0464 9.3361C22.0464 9.3361 24.4558 8.91272 24.5123 11.0901C24.5689 13.273 24.5123 25.4082 24.5123 25.4082C24.5123 25.4082 25.0609 27.1623 22.4876 27.6406Z"
        fill="url(#paint0_linear)" />
  <path d="M19.3034 12.6077C18.5965 12.7232 18.0762 13.1026 17.7481 13.7404L16.3625 16.8306L14.9768 14.0208C14.6601 13.4655 14.1398 13.229 13.4215 13.3005C12.6014 13.3665 11.968 13.8889 11.5269 14.8511C11.4251 15.1645 11.3742 15.4284 11.3742 15.6484C11.3628 16.0388 11.5212 16.5666 11.8492 17.232L14.8863 23.8852C15.1748 24.4955 15.6725 24.8364 16.3681 24.9024C17.0864 24.9684 17.5841 24.7044 17.8499 24.1106L20.887 16.8141C21.2264 16.0388 21.3847 15.3955 21.3621 14.8786C21.3621 14.6202 21.3112 14.3123 21.2094 13.9603C20.7683 12.9376 20.1348 12.4922 19.3034 12.6077Z"
        fill="url(#paint1_linear)" />
  <path d="M8.89696 18.6121V17.4904L10.1469 17.4354V15.0051L8.89696 15.1205V13.8339L5.102 14.2793V18.5571C5.102 20.2067 5.5488 21.5318 6.44805 22.5655C7.36993 23.5827 8.55762 24.1766 10.0111 24.325L10.0564 24.3305C10.062 24.3305 10.0677 24.3305 10.0734 24.3305C10.079 24.3305 10.079 24.3305 10.0847 24.3305L10.8425 24.402V20.6685L10.0677 20.652C9.28721 20.5861 8.89696 19.9097 8.89696 18.6121Z"
        fill="url(#paint2_linear)" />
  <defs>
    <linearGradient id="paint0_linear" x1="-0.942445" y1="0.987626" x2="27.3323"
                    y2="29.9242" gradientUnits="userSpaceOnUse">
      <stop stop-color="#3368B2" />
      <stop offset="1" stop-color="#ED4E8F" />
    </linearGradient>
    <linearGradient id="paint1_linear" x1="-0.942445" y1="0.987626" x2="27.3323"
                    y2="29.9242" gradientUnits="userSpaceOnUse">
      <stop stop-color="#3368B2" />
      <stop offset="1" stop-color="#ED4E8F" />
    </linearGradient>
    <linearGradient id="paint2_linear" x1="-0.942445" y1="0.987626" x2="27.3323"
                    y2="29.9242" gradientUnits="userSpaceOnUse">
      <stop stop-color="#3368B2" />
      <stop offset="1" stop-color="#ED4E8F" />
    </linearGradient>
  </defs>
</svg>