<svg width="37" height="40" viewBox="0 0 37 40" fill="none"
     xmlns="http://www.w3.org/2000/svg">
  <path d="M33.788 9.61473C32.4791 9.07348 31.0273 8.96072 29.6206 9.17121C23.8811 10.0207 19.616 10.6972 19.616 10.6972L23.4223 1.57865C23.5351 1.63879 23.663 1.67638 23.7984 1.67638C24.2573 1.67638 24.6334 1.30051 24.6334 0.841947C24.6334 0.383387 24.2648 0 23.8059 0C23.3471 0 22.9709 0.375869 22.9709 0.83443C22.9709 1.15016 23.1515 1.42079 23.4072 1.56362L17.3593 11.1257L13.8615 11.5617L7.83611 4.45781C7.97903 4.35257 8.0693 4.18718 8.0693 3.99925C8.0693 3.69104 7.81354 3.43544 7.50513 3.43544C7.19671 3.43544 6.94096 3.69104 6.94096 3.99925C6.94096 4.30746 7.19671 4.56305 7.50513 4.56305C7.62548 4.56305 7.73831 4.52547 7.82858 4.45781L12.3269 11.7797L7.39983 12.6217C5.97059 12.8622 4.60152 13.4561 3.50327 14.3958C2.51033 15.2453 1.52491 16.4556 1.26163 18.0342L0.93066 31.2347C0.893048 32.866 1.30677 34.4973 2.24706 35.8354C2.33733 35.9632 2.43512 36.091 2.54043 36.2188C3.61611 37.5493 5.24093 38.3086 6.94849 38.4289C12.1389 38.8122 26.0626 39.6768 30.8543 39.9774C32.6897 40.0902 34.5252 39.4212 35.7212 38.0304C36.2929 37.3689 36.7593 36.5119 36.9398 35.4219V14.6213C36.9473 14.6213 37.6695 11.2084 33.788 9.61473ZM29.6658 37.1058C25.6639 37.1058 5.12808 35.5798 5.12808 35.5798C5.12808 35.5798 2.57803 35.2189 2.14174 32.8886C2.14174 30.1973 2.14174 18.7033 2.14174 18.7033C2.14174 18.7033 2.30723 16.23 5.12808 15.794L29.079 12.0804C29.079 12.0804 32.2835 11.5016 32.3588 14.4785C32.434 17.4629 32.3588 34.0537 32.3588 34.0537C32.3588 34.0537 33.0884 36.4518 29.6658 37.1058Z"
        fill="white" />
  <path d="M25.4307 16.5533C24.4904 16.7111 23.7984 17.2298 23.3621 18.1019L21.5191 22.3266L19.6762 18.4852C19.2549 17.726 18.5629 17.4027 17.6075 17.5005C16.5168 17.5907 15.6743 18.3048 15.0876 19.6204C14.9522 20.0489 14.8845 20.4097 14.8845 20.7104C14.8694 21.2441 15.0801 21.9658 15.5163 22.8754L19.5558 31.9714C19.9394 32.8059 20.6014 33.2719 21.5267 33.3622C22.482 33.4524 23.144 33.0915 23.4975 32.2797L27.537 22.3041C27.9883 21.2441 28.1989 20.3646 28.1688 19.658C28.1688 19.3046 28.1011 18.8837 27.9657 18.4026C27.379 17.0043 26.5365 16.3954 25.4307 16.5533Z"
        fill="white" />
  <path d="M11.5897 24.7623V23.2287L13.2522 23.1535V19.8309L11.5897 19.9887V18.2297L6.54227 18.8386V24.6871C6.54227 26.9423 7.13653 28.754 8.33257 30.1673C9.55871 31.558 11.1384 32.3699 13.0716 32.5728L13.1318 32.5803C13.1393 32.5803 13.1468 32.5803 13.1544 32.5803C13.1619 32.5803 13.1619 32.5803 13.1694 32.5803L14.1774 32.6781V27.5738L13.1468 27.5512C12.1088 27.461 11.5897 26.5364 11.5897 24.7623Z"
        fill="white" />
</svg>