<svg width="227" height="40" viewBox="0 0 227 40" fill="none"
     xmlns="http://www.w3.org/2000/svg">
  <path d="M11.4564 13.9447C14.9543 13.9447 17.7601 15.0047 19.8739 17.1171C21.431 18.6732 22.4164 20.6427 22.8301 23.0182C23.1536 24.9878 22.4014 26.0026 20.581 26.0552H9.117C9.35019 27.9346 10.1325 28.8743 11.4564 28.8743C12.5472 28.8743 13.2768 28.2127 13.6605 26.8897H20.8894C22.3562 26.8897 22.8452 27.5362 22.3412 28.8292C21.8146 30.4153 20.9872 31.7685 19.8739 32.881C17.7601 34.9934 14.9543 36.0534 11.4564 36.0534C7.95857 36.0534 5.1678 34.9934 3.08413 32.881C1.52702 31.2949 0.541598 29.3403 0.127873 27.025C-0.135407 25.0855 0.00751597 23.146 0.571687 21.2141C1.09825 19.5677 1.94074 18.2071 3.08413 17.1171C5.1678 15.0047 7.95857 13.9447 11.4564 13.9447ZM9.117 22.8904H13.8335C13.5702 20.981 12.7728 20.0263 11.4564 20.0263C10.4259 20.0263 9.71126 20.6878 9.29754 22.0109L9.117 22.8904Z"
        fill="white" />
  <path d="M34.8207 36.0609C33.2034 36.0609 32.06 35.5046 31.383 34.3845L24.3271 21.4772C23.5598 20.094 23.1987 19.0115 23.2288 18.2146C23.2288 17.7711 23.3492 17.2449 23.5824 16.6284C24.6129 14.7792 26.0798 13.8846 27.9904 13.9447C29.6679 13.9748 30.8715 14.5461 31.6011 15.6662L34.8207 21.1314L38.0402 15.6662C38.8075 14.5762 40.011 14.0049 41.6584 13.9447C43.5992 13.9147 45.066 14.8092 46.0665 16.6284C46.2997 17.2449 46.42 17.7711 46.42 18.2146C46.4802 19.0942 46.1116 20.1842 45.3218 21.4772L38.2659 34.3845C37.6415 35.5046 36.4906 36.0609 34.8207 36.0609Z"
        fill="white" />
  <path d="M58.8393 36.0609C55.3415 36.0609 52.5507 35.0009 50.467 32.8886C48.4962 30.9491 47.4431 28.3255 47.2926 25.0028C47.413 21.6576 48.4661 19.0265 50.467 17.1171C52.5507 15.0047 55.3415 13.9447 58.8393 13.9447C62.3372 13.9447 65.143 15.0047 67.2568 17.1171C69.1975 19.0265 70.2506 21.6576 70.4312 25.0028C70.2581 28.318 69.1975 30.9491 67.2568 32.8886C65.143 35.0009 62.3372 36.0609 58.8393 36.0609ZM61.5699 25.0028C61.4495 22.6799 60.5394 21.4621 58.8393 21.3494C57.1618 21.4696 56.2516 22.6875 56.1087 25.0028C56.2291 27.3257 57.1393 28.5285 58.8393 28.6112C60.5469 28.5285 61.4571 27.3257 61.5699 25.0028Z"
        fill="white" />
  <path d="M98.9406 13.9447H107.802V23.8076C107.802 27.664 106.741 30.6784 104.627 32.851C102.454 34.9934 99.6477 36.0609 96.21 36.0609C92.7723 36.0609 89.9665 34.9934 87.7926 32.851C85.7089 30.6183 84.6633 27.6038 84.6633 23.8076V13.9447H93.4794V24.1233C93.4794 26.8972 94.3896 28.333 96.21 28.4232C98.0304 28.333 98.9406 26.9047 98.9406 24.1233V13.9447Z"
        fill="white" />
  <path d="M148.543 36.0609C145.045 36.0609 142.254 35.0009 140.17 32.8886C138.199 30.9491 137.146 28.3255 136.996 25.0028C137.116 21.6576 138.169 19.0265 140.17 17.1171C142.254 15.0047 145.045 13.9447 148.543 13.9447C152.04 13.9447 154.846 15.0047 156.96 17.1171C158.901 19.0265 159.954 21.6576 160.134 25.0028C159.961 28.318 158.901 30.9491 156.96 32.8886C154.846 35.0009 152.04 36.0609 148.543 36.0609ZM151.273 25.0028C151.153 22.6799 150.243 21.4621 148.543 21.3494C146.865 21.4696 145.955 22.6875 145.812 25.0028C145.932 27.3257 146.843 28.5285 148.543 28.6112C150.243 28.5285 151.16 27.3257 151.273 25.0028Z"
        fill="white" />
  <path d="M170.651 36.309H161.834V26.2958C161.834 22.4244 162.88 19.4024 164.964 17.2374C167.077 15.0423 169.883 13.9447 173.381 13.9447C176.879 13.9447 179.685 15.0423 181.799 17.2374C183.912 19.3723 184.973 22.3868 184.973 26.2958V36.309H176.112V26.0177C176.112 23.2437 175.202 21.7779 173.381 21.6275C171.561 21.7779 170.651 23.2437 170.651 26.0177V36.309Z"
        fill="white" />
  <path d="M73.4777 14.3056C73.4325 14.1327 73.41 13.9222 73.41 13.6816C73.41 12.757 73.8087 11.9752 74.606 11.3362C75.4259 10.6897 76.4038 10.3665 77.5472 10.3665C78.668 10.3665 79.6384 10.6897 80.4508 11.3362C81.2632 11.9752 81.6694 12.757 81.6694 13.6816C81.6694 13.817 81.6619 13.9297 81.6544 14.0124V31.6407C81.677 31.8512 81.692 32.009 81.692 32.1067C81.692 33.0314 81.2858 33.8132 80.4734 34.4522C79.661 35.0911 78.6981 35.4069 77.5698 35.4069C76.449 35.4069 75.4636 35.0911 74.6286 34.4522C73.8312 33.8057 73.4325 33.0239 73.4325 32.1067C73.4325 31.9113 73.4476 31.7234 73.4852 31.5505V14.3056H73.4777Z"
        fill="white" />
  <path d="M135.341 14.9821C135.341 16.2451 134.882 17.3276 133.964 18.2297C133.039 19.1317 131.941 19.5828 130.677 19.5828C129.406 19.5828 128.3 19.1317 127.375 18.2297C126.472 17.3351 126.021 16.2526 126.021 14.9821C126.021 13.7117 126.472 12.6217 127.375 11.7196C128.3 10.8175 129.406 10.3665 130.677 10.3665C131.963 10.3665 133.062 10.8175 133.964 11.7196C134.882 12.6217 135.341 13.7117 135.341 14.9821Z"
        fill="white" />
  <path d="M130.692 20.9209C131.813 20.9209 132.776 21.2667 133.581 21.9658C134.378 22.6348 134.777 23.4693 134.777 24.4465V32.7983C134.777 33.7681 134.378 34.6025 133.581 35.2791C132.768 35.9632 131.805 36.3014 130.692 36.3014C129.571 36.3014 128.601 35.9632 127.789 35.2791C126.991 34.595 126.593 33.7681 126.593 32.7983V24.4465C126.593 23.4618 126.991 22.6348 127.789 21.9658C128.593 21.2667 129.556 20.9209 130.692 20.9209Z"
        fill="white" />
  <path d="M124.456 28.4157H122.651C120.846 28.3105 119.943 26.8822 119.943 24.1233V21.7328H122.846V16.6811H119.943V13.9447H111.127V23.8076C111.127 27.6038 112.172 30.6183 114.256 32.851C116.4 34.9634 119.161 36.0233 122.53 36.0534V36.0609H122.636C122.651 36.0609 122.658 36.0609 122.673 36.0609C122.681 36.0609 122.688 36.0609 122.696 36.0609H124.456V28.4157Z"
        fill="white" />
  <path d="M223.788 9.61473C222.479 9.07348 221.027 8.96072 219.621 9.17121C213.881 10.0207 209.616 10.6972 209.616 10.6972L213.422 1.57865C213.535 1.63879 213.663 1.67638 213.798 1.67638C214.257 1.67638 214.633 1.30051 214.633 0.841947C214.633 0.383387 214.265 0 213.806 0C213.347 0 212.971 0.375869 212.971 0.83443C212.971 1.15016 213.151 1.42079 213.407 1.56362L207.359 11.1257L203.861 11.5617L197.836 4.45781C197.979 4.35257 198.069 4.18718 198.069 3.99925C198.069 3.69104 197.814 3.43544 197.505 3.43544C197.197 3.43544 196.941 3.69104 196.941 3.99925C196.941 4.30746 197.197 4.56305 197.505 4.56305C197.625 4.56305 197.738 4.52547 197.829 4.45781L202.327 11.7797L197.4 12.6217C195.971 12.8622 194.602 13.4561 193.503 14.3958C192.51 15.2453 191.525 16.4556 191.262 18.0342L190.931 31.2347C190.893 32.866 191.307 34.4973 192.247 35.8354C192.337 35.9632 192.435 36.091 192.54 36.2188C193.616 37.5493 195.241 38.3086 196.948 38.4289C202.139 38.8122 216.063 39.6768 220.854 39.9774C222.69 40.0902 224.525 39.4212 225.721 38.0304C226.293 37.3689 226.759 36.5119 226.94 35.4219V14.6213C226.947 14.6213 227.669 11.2084 223.788 9.61473ZM219.666 37.1058C215.664 37.1058 195.128 35.5798 195.128 35.5798C195.128 35.5798 192.578 35.2189 192.142 32.8886C192.142 30.1973 192.142 18.7033 192.142 18.7033C192.142 18.7033 192.307 16.23 195.128 15.794L219.079 12.0804C219.079 12.0804 222.284 11.5016 222.359 14.4785C222.434 17.4629 222.359 34.0537 222.359 34.0537C222.359 34.0537 223.088 36.4518 219.666 37.1058Z"
        fill="white" />
  <path d="M215.431 16.5533C214.49 16.7111 213.798 17.2298 213.362 18.1019L211.519 22.3266L209.676 18.4852C209.255 17.726 208.563 17.4027 207.608 17.5005C206.517 17.5907 205.674 18.3048 205.088 19.6204C204.952 20.0489 204.884 20.4097 204.884 20.7104C204.869 21.2441 205.08 21.9658 205.516 22.8754L209.556 31.9714C209.939 32.8059 210.601 33.2719 211.527 33.3622C212.482 33.4524 213.144 33.0915 213.497 32.2797L217.537 22.3041C217.988 21.2441 218.199 20.3646 218.169 19.658C218.169 19.3046 218.101 18.8837 217.966 18.4026C217.379 17.0043 216.537 16.3954 215.431 16.5533Z"
        fill="white" />
  <path d="M201.59 24.7623V23.2287L203.252 23.1535V19.8309L201.59 19.9887V18.2297L196.542 18.8386V24.6871C196.542 26.9423 197.137 28.754 198.333 30.1673C199.559 31.558 201.138 32.3699 203.072 32.5728L203.132 32.5803C203.139 32.5803 203.147 32.5803 203.154 32.5803C203.162 32.5803 203.162 32.5803 203.169 32.5803L204.177 32.6781V27.5738L203.147 27.5512C202.109 27.461 201.59 26.5364 201.59 24.7623Z"
        fill="white" />
</svg>