<svg width="227" height="39" viewBox="0 0 227 39" fill="none"
     xmlns="http://www.w3.org/2000/svg">
  <path d="M11.4577 13.5862C14.9561 13.5862 17.7623 14.6485 19.8764 16.7656C21.4338 18.3251 22.4193 20.299 22.8331 22.6798C23.1566 24.6537 22.4043 25.6708 20.5836 25.7236H9.11796C9.35118 27.6071 10.1336 28.5488 11.4577 28.5488C12.5486 28.5488 13.2784 27.8858 13.6621 26.5598H20.8921C22.3591 26.5598 22.8482 27.2078 22.3441 28.5036C21.8175 30.0933 20.9899 31.4494 19.8764 32.5645C17.7623 34.6815 14.9561 35.7438 11.4577 35.7438C7.95935 35.7438 5.16817 34.6815 3.08419 32.5645C1.52685 30.9748 0.541282 29.0159 0.127495 26.6954C-0.135824 24.7517 0.00712029 22.8079 0.571375 20.8716C1.09801 19.2217 1.94063 17.858 3.08419 16.7656C5.16817 14.6485 7.95935 13.5862 11.4577 13.5862ZM9.11796 22.5517H13.8351C13.5718 20.6381 12.7743 19.6812 11.4577 19.6812C10.427 19.6812 9.7123 20.3442 9.29852 21.6702L9.11796 22.5517Z"
        fill="url(#paint0_linear)" />
  <path d="M34.8254 35.7514C33.2079 35.7514 32.0643 35.1939 31.3872 34.0713L24.3303 21.1353C23.5629 19.7491 23.2018 18.6642 23.2319 17.8655C23.2319 17.421 23.3522 16.8937 23.5855 16.2759C24.6162 14.4225 26.0832 13.5259 27.9942 13.5862C29.6719 13.6163 30.8756 14.1889 31.6054 15.3115L34.8254 20.7888L38.0454 15.3115C38.8128 14.2191 40.0166 13.6465 41.6642 13.5862C43.6052 13.5561 45.0723 14.4526 46.0729 16.2759C46.3061 16.8937 46.4265 17.421 46.4265 17.8655C46.4867 18.747 46.118 19.8395 45.3281 21.1353L38.2711 34.0713C37.6467 35.1939 36.4956 35.7514 34.8254 35.7514Z"
        fill="url(#paint1_linear)" />
  <path d="M58.8476 35.7514C55.3493 35.7514 52.5581 34.6891 50.4741 32.572C48.503 30.6282 47.4497 27.9988 47.2992 24.6688C47.4196 21.3161 48.4729 18.6792 50.4741 16.7656C52.5581 14.6485 55.3493 13.5862 58.8476 13.5862C62.346 13.5862 65.1522 14.6485 67.2663 16.7656C69.2074 18.6792 70.2606 21.3161 70.4412 24.6688C70.2681 27.9913 69.2074 30.6282 67.2663 32.572C65.1522 34.6891 62.346 35.7514 58.8476 35.7514ZM61.5786 24.6688C61.4582 22.3408 60.5479 21.1203 58.8476 21.0072C57.1699 21.1278 56.2596 22.3483 56.1166 24.6688C56.237 26.9968 57.1473 28.2023 58.8476 28.2851C60.5554 28.2023 61.4658 26.9968 61.5786 24.6688Z"
        fill="url(#paint2_linear)" />
  <path d="M98.9549 13.5862H107.817V23.4709C107.817 27.3358 106.757 30.357 104.643 32.5343C102.468 34.6815 99.6621 35.7514 96.2239 35.7514C92.7857 35.7514 89.9795 34.6815 87.8052 32.5343C85.7212 30.2967 84.6755 27.2756 84.6755 23.4709V13.5862H93.4929V23.7873C93.4929 26.5674 94.4032 28.0064 96.2239 28.0968C98.0445 28.0064 98.9549 26.5749 98.9549 23.7873V13.5862Z"
        fill="url(#paint3_linear)" />
  <path d="M148.564 35.7514C145.066 35.7514 142.275 34.6891 140.191 32.572C138.219 30.6282 137.166 27.9988 137.016 24.6688C137.136 21.3161 138.189 18.6792 140.191 16.7656C142.275 14.6485 145.066 13.5862 148.564 13.5862C152.063 13.5862 154.869 14.6485 156.983 16.7656C158.924 18.6792 159.977 21.3161 160.158 24.6688C159.985 27.9913 158.924 30.6282 156.983 32.572C154.869 34.6891 152.063 35.7514 148.564 35.7514ZM151.295 24.6688C151.175 22.3408 150.264 21.1203 148.564 21.0072C146.886 21.1278 145.976 22.3483 145.833 24.6688C145.954 26.9968 146.864 28.2023 148.564 28.2851C150.264 28.2023 151.182 26.9968 151.295 24.6688Z"
        fill="url(#paint4_linear)" />
  <path d="M170.675 36H161.858V25.9646C161.858 22.0846 162.904 19.0559 164.988 16.8861C167.102 14.6862 169.908 13.5862 173.406 13.5862C176.905 13.5862 179.711 14.6862 181.825 16.8861C183.939 19.0258 185 22.0469 185 25.9646V36H176.137V25.6859C176.137 22.9058 175.227 21.4367 173.406 21.286C171.586 21.4367 170.675 22.9058 170.675 25.6859V36Z"
        fill="url(#paint5_linear)" />
  <path d="M73.4882 13.9478C73.443 13.7746 73.4204 13.5636 73.4204 13.3225C73.4204 12.3958 73.8192 11.6123 74.6167 10.9719C75.4367 10.324 76.4148 10 77.5583 10C78.6793 10 79.6498 10.324 80.4623 10.9719C81.2749 11.6123 81.6811 12.3958 81.6811 13.3225C81.6811 13.4581 81.6736 13.5711 81.6661 13.654V31.3214C81.6887 31.5323 81.7037 31.6905 81.7037 31.7885C81.7037 32.7152 81.2974 33.4987 80.4849 34.1391C79.6724 34.7795 78.7094 35.0959 77.5809 35.0959C76.4599 35.0959 75.4743 34.7795 74.6392 34.1391C73.8418 33.4912 73.443 32.7076 73.443 31.7885C73.443 31.5926 73.4581 31.4042 73.4957 31.2309V13.9478H73.4882Z"
        fill="url(#paint6_linear)" />
  <path d="M135.361 14.6259C135.361 15.8916 134.902 16.9765 133.984 17.8806C133.058 18.7847 131.96 19.2367 130.696 19.2367C129.425 19.2367 128.319 18.7847 127.393 17.8806C126.491 16.9841 126.039 15.8992 126.039 14.6259C126.039 13.3527 126.491 12.2602 127.393 11.3561C128.319 10.452 129.425 10 130.696 10C131.983 10 133.081 10.452 133.984 11.3561C134.902 12.2602 135.361 13.3527 135.361 14.6259Z"
        fill="url(#paint7_linear)" />
  <path d="M130.711 20.5778C131.832 20.5778 132.795 20.9244 133.6 21.625C134.398 22.2956 134.796 23.1318 134.796 24.1113V32.4816C134.796 33.4535 134.398 34.2898 133.6 34.9678C132.788 35.6534 131.825 35.9925 130.711 35.9925C129.59 35.9925 128.62 35.6534 127.807 34.9678C127.01 34.2822 126.611 33.4535 126.611 32.4816V24.1113C126.611 23.1243 127.01 22.2956 127.807 21.625C128.612 20.9244 129.575 20.5778 130.711 20.5778Z"
        fill="url(#paint8_linear)" />
  <path d="M124.474 28.0893H122.669C120.863 27.9838 119.96 26.5523 119.96 23.7873V21.3915H122.864V16.3286H119.96V13.5862H111.143V23.4709C111.143 27.2756 112.189 30.2967 114.273 32.5343C116.417 34.6514 119.178 35.7137 122.548 35.7438V35.7514H122.654C122.669 35.7514 122.676 35.7514 122.691 35.7514C122.699 35.7514 122.706 35.7514 122.714 35.7514H124.474V28.0893Z"
        fill="url(#paint9_linear)" />
  <path d="M223.797 9.37679C222.49 8.84893 221.041 8.73896 219.637 8.94424C213.909 9.77268 209.652 10.4325 209.652 10.4325L213.451 1.53958C213.563 1.59823 213.691 1.63489 213.826 1.63489C214.284 1.63489 214.66 1.26832 214.66 0.82111C214.66 0.373899 214.292 0 213.834 0C213.376 0 213 0.366567 213 0.813779C213 1.1217 213.181 1.38562 213.436 1.52492L207.399 10.8504L203.908 11.2756L197.895 4.34749C198.037 4.24485 198.127 4.08356 198.127 3.90027C198.127 3.59969 197.872 3.35042 197.564 3.35042C197.256 3.35042 197.001 3.59969 197.001 3.90027C197.001 4.20086 197.256 4.45013 197.564 4.45013C197.684 4.45013 197.797 4.41347 197.887 4.34749L202.377 11.4882L197.459 12.3093C196.033 12.5439 194.666 13.1231 193.57 14.0395C192.579 14.868 191.595 16.0483 191.333 17.5879L191.002 30.4617C190.965 32.0526 191.378 33.6435 192.316 34.9485C192.406 35.0731 192.504 35.1978 192.609 35.3224C193.683 36.6201 195.304 37.3605 197.009 37.4778C202.189 37.8517 216.086 38.6948 220.869 38.9881C222.7 39.0981 224.532 38.4456 225.726 37.0893C226.297 36.4441 226.762 35.6083 226.942 34.5453V14.2595C226.95 14.2595 227.671 10.931 223.797 9.37679ZM219.682 36.1875C215.688 36.1875 195.192 34.6992 195.192 34.6992C195.192 34.6992 192.647 34.3473 192.211 32.0746C192.211 29.45 192.211 18.2404 192.211 18.2404C192.211 18.2404 192.376 15.8284 195.192 15.4032L219.097 11.7815C219.097 11.7815 222.295 11.217 222.37 14.1202C222.445 17.0307 222.37 33.211 222.37 33.211C222.37 33.211 223.098 35.5497 219.682 36.1875Z"
        fill="url(#paint10_linear)" />
  <path d="M215.455 16.1436C214.517 16.2976 213.826 16.8034 213.391 17.6539L211.551 21.7741L209.712 18.0278C209.291 17.2873 208.601 16.9721 207.647 17.0674C206.559 17.1553 205.718 17.8518 205.132 19.1348C204.997 19.5527 204.929 19.9046 204.929 20.1979C204.914 20.7184 205.125 21.4222 205.56 22.3093L209.592 31.1802C209.975 31.994 210.635 32.4485 211.559 32.5365C212.512 32.6245 213.173 32.2726 213.526 31.4808L217.558 21.7521C218.008 20.7184 218.218 19.8606 218.188 19.1715C218.188 18.8269 218.121 18.4163 217.986 17.9471C217.4 16.5835 216.559 15.9897 215.455 16.1436Z"
        fill="url(#paint11_linear)" />
  <path d="M201.641 24.1494V22.6539L203.3 22.5805V19.3401L201.641 19.494V17.7785L196.603 18.3723V24.0761C196.603 26.2755 197.196 28.0424 198.39 29.4207C199.614 30.777 201.19 31.5688 203.12 31.7667L203.18 31.774C203.188 31.774 203.195 31.774 203.203 31.774C203.21 31.774 203.21 31.774 203.218 31.774L204.224 31.8694V26.8914L203.195 26.8694C202.159 26.7814 201.641 25.8796 201.641 24.1494Z"
        fill="url(#paint12_linear)" />
  <defs>
    <linearGradient id="paint0_linear" x1="3.98264" y1="12.9735" x2="184.585"
                    y2="36.0631" gradientUnits="userSpaceOnUse">
      <stop stop-color="#3368B2" />
      <stop offset="1" stop-color="#ED4E8F" />
    </linearGradient>
    <linearGradient id="paint1_linear" x1="3.98264" y1="12.9735" x2="184.585"
                    y2="36.0631" gradientUnits="userSpaceOnUse">
      <stop stop-color="#3368B2" />
      <stop offset="1" stop-color="#ED4E8F" />
    </linearGradient>
    <linearGradient id="paint2_linear" x1="3.98264" y1="12.9735" x2="184.585"
                    y2="36.0631" gradientUnits="userSpaceOnUse">
      <stop stop-color="#3368B2" />
      <stop offset="1" stop-color="#ED4E8F" />
    </linearGradient>
    <linearGradient id="paint3_linear" x1="3.98264" y1="12.9735" x2="184.585"
                    y2="36.0631" gradientUnits="userSpaceOnUse">
      <stop stop-color="#3368B2" />
      <stop offset="1" stop-color="#ED4E8F" />
    </linearGradient>
    <linearGradient id="paint4_linear" x1="3.98264" y1="12.9735" x2="184.585"
                    y2="36.0631" gradientUnits="userSpaceOnUse">
      <stop stop-color="#3368B2" />
      <stop offset="1" stop-color="#ED4E8F" />
    </linearGradient>
    <linearGradient id="paint5_linear" x1="3.98264" y1="12.9735" x2="184.585"
                    y2="36.0631" gradientUnits="userSpaceOnUse">
      <stop stop-color="#3368B2" />
      <stop offset="1" stop-color="#ED4E8F" />
    </linearGradient>
    <linearGradient id="paint6_linear" x1="3.98264" y1="12.9735" x2="184.585"
                    y2="36.0631" gradientUnits="userSpaceOnUse">
      <stop stop-color="#3368B2" />
      <stop offset="1" stop-color="#ED4E8F" />
    </linearGradient>
    <linearGradient id="paint7_linear" x1="3.98264" y1="12.9735" x2="184.585"
                    y2="36.0631" gradientUnits="userSpaceOnUse">
      <stop stop-color="#3368B2" />
      <stop offset="1" stop-color="#ED4E8F" />
    </linearGradient>
    <linearGradient id="paint8_linear" x1="3.98264" y1="12.9735" x2="184.585"
                    y2="36.0631" gradientUnits="userSpaceOnUse">
      <stop stop-color="#3368B2" />
      <stop offset="1" stop-color="#ED4E8F" />
    </linearGradient>
    <linearGradient id="paint9_linear" x1="3.98264" y1="12.9735" x2="184.585"
                    y2="36.0631" gradientUnits="userSpaceOnUse">
      <stop stop-color="#3368B2" />
      <stop offset="1" stop-color="#ED4E8F" />
    </linearGradient>
    <linearGradient id="paint10_linear" x1="188.579" y1="0.650168" x2="226.282"
                    y2="39.0666" gradientUnits="userSpaceOnUse">
      <stop stop-color="#3368B2" />
      <stop offset="1" stop-color="#ED4E8F" />
    </linearGradient>
    <linearGradient id="paint11_linear" x1="188.579" y1="0.650168" x2="226.282"
                    y2="39.0666" gradientUnits="userSpaceOnUse">
      <stop stop-color="#3368B2" />
      <stop offset="1" stop-color="#ED4E8F" />
    </linearGradient>
    <linearGradient id="paint12_linear" x1="188.579" y1="0.650168" x2="226.282"
                    y2="39.0666" gradientUnits="userSpaceOnUse">
      <stop stop-color="#3368B2" />
      <stop offset="1" stop-color="#ED4E8F" />
    </linearGradient>
  </defs>
</svg>