<svg width="185" height="27" viewBox="0 0 185 27" fill="none"
     xmlns="http://www.w3.org/2000/svg">
  <path d="M11.4564 3.94474C14.9543 3.94474 17.7601 5.00469 19.8739 7.11708C21.431 8.67318 22.4164 10.6427 22.8301 13.0182C23.1536 14.9878 22.4014 16.0026 20.581 16.0552H9.117C9.35019 17.9346 10.1325 18.8743 11.4564 18.8743C12.5472 18.8743 13.2768 18.2127 13.6605 16.8897H20.8894C22.3562 16.8897 22.8452 17.5362 22.3412 18.8292C21.8146 20.4153 20.9872 21.7685 19.8739 22.881C17.7601 24.9934 14.9543 26.0534 11.4564 26.0534C7.95857 26.0534 5.1678 24.9934 3.08413 22.881C1.52702 21.2949 0.541598 19.3403 0.127873 17.025C-0.135407 15.0855 0.00751597 13.146 0.571687 11.2141C1.09825 9.56775 1.94074 8.2071 3.08413 7.11708C5.1678 5.00469 7.95857 3.94474 11.4564 3.94474ZM9.117 12.8904H13.8335C13.5702 10.981 12.7728 10.0263 11.4564 10.0263C10.4259 10.0263 9.71126 10.6878 9.29754 12.0109L9.117 12.8904Z"
        fill="white" />
  <path d="M34.8207 26.0609C33.2034 26.0609 32.06 25.5046 31.383 24.3845L24.3271 11.4772C23.5598 10.094 23.1987 9.01146 23.2288 8.21462C23.2288 7.77109 23.3492 7.24487 23.5824 6.62845C24.6129 4.77917 26.0798 3.8846 27.9904 3.94474C29.6679 3.97481 30.8715 4.54613 31.6011 5.66622L34.8207 11.1314L38.0402 5.66622C38.8075 4.5762 40.011 4.00488 41.6584 3.94474C43.5992 3.91467 45.066 4.80924 46.0665 6.62845C46.2997 7.24487 46.42 7.77109 46.42 8.21462C46.4802 9.09415 46.1116 10.1842 45.3218 11.4772L38.2659 24.3845C37.6415 25.5046 36.4906 26.0609 34.8207 26.0609Z"
        fill="white" />
  <path d="M58.8393 26.0609C55.3415 26.0609 52.5507 25.0009 50.467 22.8886C48.4962 20.9491 47.4431 18.3255 47.2926 15.0028C47.413 11.6576 48.4661 9.02649 50.467 7.11708C52.5507 5.00469 55.3415 3.94474 58.8393 3.94474C62.3372 3.94474 65.143 5.00469 67.2568 7.11708C69.1975 9.02649 70.2506 11.6576 70.4312 15.0028C70.2581 18.318 69.1975 20.9491 67.2568 22.8886C65.143 25.0009 62.3372 26.0609 58.8393 26.0609ZM61.5699 15.0028C61.4495 12.6799 60.5394 11.4621 58.8393 11.3494C57.1618 11.4696 56.2516 12.6875 56.1087 15.0028C56.2291 17.3257 57.1393 18.5285 58.8393 18.6112C60.5469 18.5285 61.4571 17.3257 61.5699 15.0028Z"
        fill="white" />
  <path d="M98.9406 3.94474H107.802V13.8076C107.802 17.664 106.741 20.6784 104.627 22.851C102.454 24.9934 99.6477 26.0609 96.21 26.0609C92.7723 26.0609 89.9665 24.9934 87.7926 22.851C85.7089 20.6183 84.6633 17.6038 84.6633 13.8076V3.94474H93.4794V14.1233C93.4794 16.8972 94.3896 18.333 96.21 18.4232C98.0304 18.333 98.9406 16.9047 98.9406 14.1233V3.94474Z"
        fill="white" />
  <path d="M148.543 26.0609C145.045 26.0609 142.254 25.0009 140.17 22.8886C138.199 20.9491 137.146 18.3255 136.996 15.0028C137.116 11.6576 138.169 9.02649 140.17 7.11708C142.254 5.00469 145.045 3.94474 148.543 3.94474C152.04 3.94474 154.846 5.00469 156.96 7.11708C158.901 9.02649 159.954 11.6576 160.134 15.0028C159.961 18.318 158.901 20.9491 156.96 22.8886C154.846 25.0009 152.04 26.0609 148.543 26.0609ZM151.273 15.0028C151.153 12.6799 150.243 11.4621 148.543 11.3494C146.865 11.4696 145.955 12.6875 145.812 15.0028C145.932 17.3257 146.843 18.5285 148.543 18.6112C150.243 18.5285 151.16 17.3257 151.273 15.0028Z"
        fill="white" />
  <path d="M170.651 26.309H161.834V16.2958C161.834 12.4244 162.88 9.40236 164.964 7.23736C167.077 5.04228 169.883 3.94474 173.381 3.94474C176.879 3.94474 179.685 5.04228 181.799 7.23736C183.912 9.37229 184.973 12.3868 184.973 16.2958V26.309H176.112V16.0177C176.112 13.2437 175.202 11.7779 173.381 11.6275C171.561 11.7779 170.651 13.2437 170.651 16.0177V26.309Z"
        fill="white" />
  <path d="M73.4777 4.30558C73.4325 4.13268 73.41 3.92219 73.41 3.68164C73.41 2.757 73.8087 1.97519 74.606 1.33621C75.4259 0.689718 76.4038 0.36647 77.5472 0.36647C78.668 0.36647 79.6384 0.689718 80.4508 1.33621C81.2632 1.97519 81.6694 2.757 81.6694 3.68164C81.6694 3.81695 81.6619 3.92971 81.6544 4.0124V21.6407C81.677 21.8512 81.692 22.009 81.692 22.1067C81.692 23.0314 81.2858 23.8132 80.4734 24.4522C79.661 25.0911 78.6981 25.4069 77.5698 25.4069C76.449 25.4069 75.4636 25.0911 74.6286 24.4522C73.8312 23.8057 73.4325 23.0239 73.4325 22.1067C73.4325 21.9113 73.4476 21.7234 73.4852 21.5505V4.30558H73.4777Z"
        fill="white" />
  <path d="M135.341 4.98214C135.341 6.24506 134.882 7.32757 133.964 8.22965C133.039 9.13174 131.941 9.58278 130.677 9.58278C129.406 9.58278 128.3 9.13174 127.375 8.22965C126.472 7.33509 126.021 6.25258 126.021 4.98214C126.021 3.71171 126.472 2.62169 127.375 1.7196C128.3 0.817513 129.406 0.36647 130.677 0.36647C131.963 0.36647 133.062 0.817513 133.964 1.7196C134.882 2.62169 135.341 3.71171 135.341 4.98214Z"
        fill="white" />
  <path d="M130.692 10.9209C131.813 10.9209 132.776 11.2667 133.581 11.9658C134.378 12.6348 134.777 13.4693 134.777 14.4465V22.7983C134.777 23.7681 134.378 24.6025 133.581 25.2791C132.768 25.9632 131.805 26.3014 130.692 26.3014C129.571 26.3014 128.601 25.9632 127.789 25.2791C126.991 24.595 126.593 23.7681 126.593 22.7983V14.4465C126.593 13.4618 126.991 12.6348 127.789 11.9658C128.593 11.2667 129.556 10.9209 130.692 10.9209Z"
        fill="white" />
  <path d="M124.456 18.4157H122.651C120.846 18.3105 119.943 16.8822 119.943 14.1233V11.7328H122.846V6.68107H119.943V3.94474H111.127V13.8076C111.127 17.6038 112.172 20.6183 114.256 22.851C116.4 24.9634 119.161 26.0233 122.53 26.0534V26.0609H122.636C122.651 26.0609 122.658 26.0609 122.673 26.0609C122.681 26.0609 122.688 26.0609 122.696 26.0609H124.456V18.4157Z"
        fill="white" />
</svg>