<svg width="140" height="20" viewBox="0 0 140 20" fill="none"
     xmlns="http://www.w3.org/2000/svg">
  <path d="M8.63116 2.68965C11.2665 2.68965 13.3804 3.48638 14.973 5.07418C16.1461 6.24384 16.8886 7.72428 17.2003 9.50985C17.444 10.9903 16.8772 11.7531 15.5057 11.7927H6.86859C7.04428 13.2053 7.63369 13.9116 8.63116 13.9116C9.45293 13.9116 10.0027 13.4144 10.2917 12.4199H15.7381C16.8432 12.4199 17.2116 12.9058 16.8319 13.8777C16.4352 15.07 15.8118 16.0871 14.973 16.9234C13.3804 18.5112 11.2665 19.3079 8.63116 19.3079C5.99581 19.3079 3.8932 18.5112 2.32333 16.9234C1.15018 15.7311 0.40775 14.262 0.0960423 12.5216C-0.102317 11.0637 0.00536374 9.60591 0.430419 8.15372C0.827138 6.91625 1.46189 5.89351 2.32333 5.07418C3.8932 3.48638 5.99581 2.68965 8.63116 2.68965ZM6.86859 9.41379H10.4221C10.2237 7.97856 9.62295 7.26094 8.63116 7.26094C7.85472 7.26094 7.31632 7.75818 7.00461 8.75268L6.86859 9.41379Z"
        fill="url(#paint0_linear)" />
  <path d="M26.2341 19.3135C25.0156 19.3135 24.1542 18.8954 23.6441 18.0535L18.3281 8.35149C17.75 7.31179 17.478 6.49811 17.5007 5.89916C17.5007 5.56578 17.5913 5.17024 17.767 4.7069C18.5435 3.31686 19.6486 2.64445 21.0881 2.68965C22.3519 2.71226 23.2587 3.1417 23.8085 3.98363L26.2341 8.09157L28.6598 3.98363C29.2378 3.1643 30.1446 2.73486 31.3858 2.68965C32.848 2.66705 33.9531 3.33947 34.7069 4.7069C34.8826 5.17024 34.9733 5.56578 34.9733 5.89916C35.0186 6.56027 34.7409 7.3796 34.1458 8.35149L28.8298 18.0535C28.3594 18.8954 27.4923 19.3135 26.2341 19.3135Z"
        fill="url(#paint1_linear)" />
  <path d="M44.3302 19.3135C41.6948 19.3135 39.5922 18.5168 38.0223 16.929C36.5375 15.4712 35.744 13.4991 35.6307 11.0016C35.7214 8.4871 36.5148 6.50942 38.0223 5.07418C39.5922 3.48638 41.6948 2.68965 44.3302 2.68965C46.9655 2.68965 49.0794 3.48638 50.672 5.07418C52.1342 6.50942 52.9276 8.4871 53.0636 11.0016C52.9333 13.4935 52.1342 15.4712 50.672 16.929C49.0794 18.5168 46.9655 19.3135 44.3302 19.3135ZM46.3874 11.0016C46.2967 9.25558 45.611 8.34019 44.3302 8.25543C43.0663 8.34584 42.3806 9.26123 42.2729 11.0016C42.3636 12.7476 43.0493 13.6517 44.3302 13.7139C45.6167 13.6517 46.3024 12.7476 46.3874 11.0016Z"
        fill="url(#paint2_linear)" />
  <path d="M74.5431 2.68965H81.2193V10.1032C81.2193 13.0019 80.4202 15.2677 78.8276 16.9008C77.1898 18.5112 75.0758 19.3135 72.4858 19.3135C69.8958 19.3135 67.7819 18.5112 66.144 16.9008C64.5741 15.2225 63.7864 12.9567 63.7864 10.1032V2.68965H70.4286V10.3405C70.4286 12.4255 71.1143 13.5048 72.4858 13.5726C73.8573 13.5048 74.5431 12.4312 74.5431 10.3405V2.68965Z"
        fill="url(#paint3_linear)" />
  <path d="M111.914 19.3135C109.279 19.3135 107.176 18.5168 105.606 16.929C104.121 15.4712 103.328 13.4991 103.214 11.0016C103.305 8.4871 104.099 6.50942 105.606 5.07418C107.176 3.48638 109.279 2.68965 111.914 2.68965C114.549 2.68965 116.663 3.48638 118.256 5.07418C119.718 6.50942 120.511 8.4871 120.647 11.0016C120.517 13.4935 119.718 15.4712 118.256 16.929C116.663 18.5168 114.549 19.3135 111.914 19.3135ZM113.971 11.0016C113.881 9.25558 113.195 8.34019 111.914 8.25543C110.65 8.34584 109.964 9.26123 109.857 11.0016C109.947 12.7476 110.633 13.6517 111.914 13.7139C113.195 13.6517 113.886 12.7476 113.971 11.0016Z"
        fill="url(#paint4_linear)" />
  <path d="M128.57 19.5H121.928V11.9735C121.928 9.06346 122.716 6.79194 124.286 5.16459C125.878 3.51463 127.992 2.68965 130.628 2.68965C133.263 2.68965 135.377 3.51463 136.97 5.16459C138.562 6.76934 139.361 9.03521 139.361 11.9735V19.5H132.685V11.7644C132.685 9.67937 131.999 8.57751 130.628 8.4645C129.256 8.57751 128.57 9.67937 128.57 11.7644V19.5Z"
        fill="url(#paint5_linear)" />
  <path d="M55.3589 2.96088C55.3249 2.83092 55.3079 2.6727 55.3079 2.49189C55.3079 1.79687 55.6083 1.20921 56.209 0.728919C56.8268 0.242973 57.5635 0 58.425 0C59.2694 0 60.0005 0.242973 60.6126 0.728919C61.2247 1.20921 61.5307 1.79687 61.5307 2.49189C61.5307 2.5936 61.5251 2.67835 61.5194 2.74051V15.991C61.5364 16.1492 61.5477 16.2679 61.5477 16.3414C61.5477 17.0364 61.2417 17.624 60.6296 18.1043C60.0175 18.5846 59.2921 18.8219 58.442 18.8219C57.5975 18.8219 56.8551 18.5846 56.226 18.1043C55.6253 17.6184 55.3249 17.0307 55.3249 16.3414C55.3249 16.1944 55.3363 16.0532 55.3646 15.9232V2.96088H55.3589Z"
        fill="url(#paint6_linear)" />
  <path d="M101.968 3.46943C101.968 4.41872 101.622 5.2324 100.931 5.91046C100.233 6.58853 99.406 6.92756 98.4539 6.92756C97.4961 6.92756 96.663 6.58853 95.9659 5.91046C95.2858 5.23805 94.9458 4.42437 94.9458 3.46943C94.9458 2.51449 95.2858 1.69516 95.9659 1.0171C96.663 0.339032 97.4961 0 98.4539 0C99.423 0 100.25 0.339032 100.931 1.0171C101.622 1.69516 101.968 2.51449 101.968 3.46943Z"
        fill="url(#paint7_linear)" />
  <path d="M98.4652 7.93335C99.3097 7.93335 100.035 8.19328 100.641 8.71878C101.242 9.22167 101.543 9.84888 101.543 10.5835V16.8612C101.543 17.5901 101.242 18.2173 100.641 18.7259C100.029 19.2401 99.304 19.4944 98.4652 19.4944C97.6208 19.4944 96.8897 19.2401 96.2776 18.7259C95.6769 18.2117 95.3765 17.5901 95.3765 16.8612V10.5835C95.3765 9.84323 95.6769 9.22167 96.2776 8.71878C96.884 8.19328 97.6094 7.93335 98.4652 7.93335Z"
        fill="url(#paint8_linear)" />
  <path d="M93.7669 13.5669H92.4068C91.0466 13.4878 90.3665 12.4142 90.3665 10.3405V8.54361H92.5541V4.74645H90.3665V2.68965H83.7243V10.1032C83.7243 12.9567 84.5121 15.2225 86.0819 16.9008C87.6971 18.4886 89.7771 19.2853 92.3161 19.3079V19.3135H92.3954C92.4068 19.3135 92.4124 19.3135 92.4238 19.3135C92.4294 19.3135 92.4351 19.3135 92.4408 19.3135H93.7669V13.5669Z"
        fill="url(#paint9_linear)" />
  <defs>
    <linearGradient id="paint0_linear" x1="3.00014" y1="2.2301" x2="139.029"
                    y2="19.6977" gradientUnits="userSpaceOnUse">
      <stop stop-color="#3368B2" />
      <stop offset="1" stop-color="#ED4E8F" />
    </linearGradient>
    <linearGradient id="paint1_linear" x1="3.00014" y1="2.2301" x2="139.029"
                    y2="19.6977" gradientUnits="userSpaceOnUse">
      <stop stop-color="#3368B2" />
      <stop offset="1" stop-color="#ED4E8F" />
    </linearGradient>
    <linearGradient id="paint2_linear" x1="3.00014" y1="2.2301" x2="139.029"
                    y2="19.6977" gradientUnits="userSpaceOnUse">
      <stop stop-color="#3368B2" />
      <stop offset="1" stop-color="#ED4E8F" />
    </linearGradient>
    <linearGradient id="paint3_linear" x1="3.00014" y1="2.2301" x2="139.029"
                    y2="19.6977" gradientUnits="userSpaceOnUse">
      <stop stop-color="#3368B2" />
      <stop offset="1" stop-color="#ED4E8F" />
    </linearGradient>
    <linearGradient id="paint4_linear" x1="3.00014" y1="2.2301" x2="139.029"
                    y2="19.6977" gradientUnits="userSpaceOnUse">
      <stop stop-color="#3368B2" />
      <stop offset="1" stop-color="#ED4E8F" />
    </linearGradient>
    <linearGradient id="paint5_linear" x1="3.00014" y1="2.2301" x2="139.029"
                    y2="19.6977" gradientUnits="userSpaceOnUse">
      <stop stop-color="#3368B2" />
      <stop offset="1" stop-color="#ED4E8F" />
    </linearGradient>
    <linearGradient id="paint6_linear" x1="3.00014" y1="2.2301" x2="139.029"
                    y2="19.6977" gradientUnits="userSpaceOnUse">
      <stop stop-color="#3368B2" />
      <stop offset="1" stop-color="#ED4E8F" />
    </linearGradient>
    <linearGradient id="paint7_linear" x1="3.00014" y1="2.2301" x2="139.029"
                    y2="19.6977" gradientUnits="userSpaceOnUse">
      <stop stop-color="#3368B2" />
      <stop offset="1" stop-color="#ED4E8F" />
    </linearGradient>
    <linearGradient id="paint8_linear" x1="3.00014" y1="2.2301" x2="139.029"
                    y2="19.6977" gradientUnits="userSpaceOnUse">
      <stop stop-color="#3368B2" />
      <stop offset="1" stop-color="#ED4E8F" />
    </linearGradient>
    <linearGradient id="paint9_linear" x1="3.00014" y1="2.2301" x2="139.029"
                    y2="19.6977" gradientUnits="userSpaceOnUse">
      <stop stop-color="#3368B2" />
      <stop offset="1" stop-color="#ED4E8F" />
    </linearGradient>
  </defs>
</svg>