<svg width="83" height="83" viewBox="0 0 83 83" xmlns="http://www.w3.org/2000/svg">
    <g fill="none" fill-rule="evenodd" opacity=".496">
        <rect fill="#F7FAFE" width="83" height="83" rx="10"/>
        <g fill="#848B9A" fill-rule="nonzero">
            <path d="M40 53c-.552 0-1 .445-1 .995v2.01c0 .55.448.995 1 .995s1-.445 1-.995v-2.01A.997.997 0 0 0 40 53zM27.616 40h-3.232c-.763 0-1.384.67-1.384 1.496v9.008c0 .825.621 1.496 1.384 1.496h3.232c.763 0 1.384-.67 1.384-1.496v-9.008C29 40.67 28.379 40 27.616 40zm-.277 10.205h-2.678v-8.41h2.678v8.41zM60.616 40h-3.232c-.763 0-1.384.67-1.384 1.496v9.008c0 .825.621 1.496 1.384 1.496h3.232c.763 0 1.384-.67 1.384-1.496v-9.008C62 40.67 61.379 40 60.616 40zm-.277 10.205h-2.678v-8.41h2.678v8.41zM42.4 33h-.8c-1.985 0-3.6 1.537-3.6 3.426v3.318c0 .693.592 1.256 1.32 1.256h5.36c.728 0 1.32-.563 1.32-1.256v-3.318C46 34.536 44.385 33 42.4 33zm-2.565 6.254v-2.828c0-.927.792-1.68 1.765-1.68h.8c.973 0 1.765.753 1.765 1.68v2.828h-4.33z"/>
            <path d="M71.121 62.231H66.99V36.127h3.545c.477 0 .885-.225 1.092-.603.207-.379.178-.847-.076-1.252l-7.19-11.446c-.33-.527-1.021-.91-1.641-.91H44.21l-1.16-1.409A1.363 1.363 0 0 0 42 20c-.402 0-.785.185-1.05.507l-1.161 1.41H21.28c-.62 0-1.31.382-1.642.91L12.45 34.271c-.254.406-.283.873-.076 1.252.207.378.615.603 1.092.603h3.545v18.867a4.668 4.668 0 0 0-1.38 4.086h-.373c-.808 0-1.465.662-1.465 1.474v1.677h-.913a.882.882 0 0 0-.879.885c0 .488.394.884.879.884H71.12a.882.882 0 0 0 .879-.884.882.882 0 0 0-.879-.885zm-3.608-31.076h-15.69l-1.165-1.415h15.966l.89 1.415zm-2.888-4.599.888 1.415H49.2l-1.166-1.415h16.59zm-1.914-2.871a.398.398 0 0 1 .17.094l.633 1.008H46.577l-.908-1.102h17.042zm-43.336 2.871h5.867a.882.882 0 0 0 .88-.884.882.882 0 0 0-.88-.885h-4.756l.634-1.008a.403.403 0 0 1 .169-.094H38.33l-.908 1.102h-8.08a.882.882 0 0 0-.878.885c0 .488.394.884.879.884h6.622L34.8 27.971H18.487l.888-1.415zm-2 3.184h15.967l-1.166 1.415h-15.69l.89-1.415zm-2.9 4.619.9-1.435H30.72l-1.182 1.435H14.474zM31.426 53.65a4.486 4.486 0 0 0-2.237-.6 4.577 4.577 0 0 0-3.87 2.177 3.476 3.476 0 0 0-1.621.067 4.653 4.653 0 0 0-3.486-1.597c-.504 0-.99.083-1.445.233V36.127h9.311c-.319.388-.397.86-.21 1.26.188.402.599.642 1.1.642h2.458V53.65zM21.169 59.08h-3.747a2.913 2.913 0 0 1-.09-.714c0-1.599 1.293-2.9 2.881-2.9.726 0 1.412.283 1.934.757a3.524 3.524 0 0 0-.978 2.857zm10.258 3.151H15.549V60.85h15.878v1.382zm0-3.151h-8.478a1.75 1.75 0 0 1 1.697-2.148c.26 0 .51.056.745.167a.875.875 0 0 0 1.196-.48 2.81 2.81 0 0 1 2.603-1.8c.904 0 1.723.447 2.237 1.138v3.123zm-1.173-22.82L42 22.003 53.746 36.26h-1.55l-9.52-11.554a.878.878 0 0 0-1.353 0l-9.52 11.554h-1.55zm15.468 25.971h-7.444V48.505h7.444v13.726zm19.51 0H52.573v-10.68a.882.882 0 0 0-.878-.884.882.882 0 0 0-.88.885v10.68H47.48V48.21c0-.812-.656-1.474-1.464-1.474h-8.03c-.808 0-1.464.662-1.464 1.474v14.021h-3.337V37.356L42 26.656l8.816 10.7v10.01c0 .488.393.884.879.884a.882.882 0 0 0 .878-.885V38.03h2.458c.5 0 .912-.24 1.1-.642.187-.4.108-.872-.21-1.26h3.423a.882.882 0 0 0 .879-.884.882.882 0 0 0-.88-.884h-4.88l-1.182-1.435h15.343l.902 1.435h-5.963a.882.882 0 0 0-.88.884c0 .489.394.884.88.884h1.669v26.104z"/>
        </g>
    </g>
</svg>
