<svg width="83" height="83" viewBox="0 0 83 83" xmlns="http://www.w3.org/2000/svg">
    <g fill="none" fill-rule="evenodd" opacity=".5">
        <rect fill="#F7FAFE" width="83" height="83" rx="10"/>
        <g fill="#848B9A" fill-rule="nonzero">
            <path d="M66.615 20.419h-5.547a.771.771 0 0 0-.774.768c0 .425.347.769.774.769h5.547c.461 0 .837.372.837.83v43.847c0 .458-.376.83-.837.83H20.52c-2.19 0-3.97-1.767-3.97-3.94 0-2.172 1.78-3.94 3.97-3.94a3.971 3.971 0 0 1 3.748 2.642.911.911 0 0 0 1.77-.297V21.956h30.22a.771.771 0 0 0 .775-.769.771.771 0 0 0-.775-.769h-30.22l-.005-.075a6.011 6.011 0 0 0-.048-.548 5.806 5.806 0 0 0-.1-.532 5.591 5.591 0 0 0-.293-.885 5.452 5.452 0 0 0-.17-.36l-.06-.116a5.105 5.105 0 0 0-.132-.228l-.07-.111-.072-.11-.076-.108-.076-.106-.08-.104-.08-.102-.086-.1c-.028-.034-.056-.067-.085-.099l-.09-.096-.09-.094-.094-.093-.094-.089c-.032-.03-.066-.059-.099-.088l-.097-.085-.104-.084-.1-.079-.109-.08-.103-.074c-.037-.026-.075-.05-.112-.075-.036-.023-.07-.047-.107-.069-.038-.024-.078-.047-.117-.07-.036-.021-.072-.043-.109-.063-.04-.023-.08-.044-.121-.065-.037-.02-.074-.04-.111-.058l-.126-.06c-.038-.018-.075-.036-.113-.052-.043-.02-.087-.037-.131-.055-.038-.015-.075-.032-.113-.046l-.137-.049-.113-.04c-.047-.016-.095-.029-.142-.043-.038-.011-.076-.024-.114-.034l-.147-.037c-.038-.01-.075-.02-.113-.028l-.154-.03-.111-.021c-.055-.01-.11-.017-.166-.024-.035-.005-.069-.011-.104-.015-.062-.008-.124-.012-.187-.018l-.086-.008a5.521 5.521 0 0 0-4.24 1.56A5.417 5.417 0 0 0 15 20.477V49.35c0 .425.347.769.774.769a.771.771 0 0 0 .775-.769V20.477c0-1.065.421-2.062 1.186-2.81a3.95 3.95 0 0 1 2.852-1.13c2.152.036 3.902 1.838 3.902 4.018V59.72a5.542 5.542 0 0 0-7.94.002v-5.598a.771.771 0 0 0-.775-.768.771.771 0 0 0-.774.768v9.399C15 66.543 17.476 69 20.518 69h46.097A2.379 2.379 0 0 0 69 66.633V22.786a2.379 2.379 0 0 0-2.385-2.367z"/>
            <path d="M63.226 32.087a.774.774 0 0 0 .774-.774v-2.388A1.927 1.927 0 0 0 62.075 27h-32.15A1.927 1.927 0 0 0 28 28.925v32.15c0 1.061.864 1.925 1.925 1.925h32.15A1.927 1.927 0 0 0 64 61.075V38.03a.774.774 0 0 0-1.548 0v5.191h-9.93a.774.774 0 1 0 0 1.549h9.93v6.48h-3.518a.774.774 0 1 0 0 1.548h3.518v8.276c0 .208-.17.377-.377.377H43.949V52.8h7.515a.774.774 0 1 0 0-1.548H37.387a.774.774 0 1 0 0 1.548H42.4v8.653H29.925a.378.378 0 0 1-.377-.377v-8.276h2.514a.774.774 0 1 0 0-1.548h-2.514V39.884h11.769a.774.774 0 0 0 .774-.774v-3.588a.774.774 0 1 0-1.548 0v2.813H29.548v-9.41c0-.208.17-.377.377-.377h10.618v2.18a.774.774 0 1 0 1.548 0v-2.18h9.658v10.765a.774.774 0 1 0 1.548 0V28.548h8.778c.208 0 .377.17.377.377v2.388c0 .428.346.774.774.774z"/>
        </g>
    </g>
</svg>
