<svg width="83" height="83" viewBox="0 0 83 83" xmlns="http://www.w3.org/2000/svg">
    <g fill="none" fill-rule="evenodd" opacity=".496">
        <rect fill="#F7FAFE" width="83" height="83" rx="10"/>
        <g fill="#848B9A" fill-rule="nonzero">
            <path d="M67.605 50.578V47.39c0-2.972-2.429-5.39-5.414-5.39H41.454a.872.872 0 0 0-.874.87c0 .48.392.87.874.87h20.737c2.022 0 3.666 1.638 3.666 3.65v3.188c-1.936.403-3.395 2.115-3.395 4.16v3.231H34.537v-3.231c0-2.045-1.458-3.757-3.394-4.16v-3.187c0-2.013 1.645-3.65 3.666-3.65h3.15c.482 0 .874-.39.874-.87 0-.481-.392-.871-.874-.871h-3.15c-2.985 0-5.414 2.418-5.414 5.39v3.188C27.459 50.98 26 52.693 26 54.738V67.13c0 .48.391.87.874.87h26.957c.482 0 .874-.39.874-.87s-.392-.87-.874-.87H34.537v-6.55h27.925v6.55h-5.135a.872.872 0 0 0-.875.87c0 .48.392.87.875.87h12.799c.483 0 .874-.39.874-.87V54.738c0-2.045-1.459-3.757-3.395-4.16zm-39.857 4.16c0-1.384 1.13-2.51 2.52-2.51 1.39 0 2.522 1.126 2.522 2.51V66.26h-5.042V54.738zM69.252 66.26H64.21V54.738c0-1.384 1.131-2.51 2.521-2.51s2.52 1.126 2.52 2.51V66.26h.001zM34.004 36.221c.044.435.433.779.883.779h28.226c.482 0 .887-.393.887-.863V15.863c0-.47-.404-.863-.887-.863h-5.156a.875.875 0 0 0-.887.863c0 .476.397.863.887.863h3.015l-1.642 1.597H38.67l-1.642-1.597H54.41c.49 0 .887-.387.887-.863A.875.875 0 0 0 54.41 15H34.887c-.483 0-.887.394-.887.863v20.274c0 .028.002.057.004.084zm3.024-.946 1.642-1.598h20.66l1.642 1.598H37.028zm21.782-3.323h-8.058l-1.478-1.598 4.795-5.18a.743.743 0 0 1 1.076.002L58.81 29.1v2.853zm-10.444 0H39.19v-.63l3.881-4.194a.574.574 0 0 1 .83 0l4.465 4.824zm13.86-14.006v16.108l-1.642-1.597V19.543l1.642-1.597zm-3.416 8.588-2.35-2.515c-.976-1.055-2.733-1.055-3.71 0l-4.67 5.046-2.86-3.091a2.38 2.38 0 0 0-3.467 0l-2.563 2.77v-8.696h19.62v6.486zm-21.394-6.991v12.914l-1.642 1.597V17.946l1.642 1.597z"/>
            <path d="M21.706 63.132h-.845V33.064h2.212v9.83c0 .48.386.869.862.869a.865.865 0 0 0 .86-.87v-9.83h2.344a.876.876 0 0 0 .84-1.062l-3.02-13.326a.863.863 0 0 0-.84-.675h-8.238c-.402 0-.75.28-.84.675l-3.02 13.326a.876.876 0 0 0 .84 1.063h6.278v30.068h-.845c-2.115 0-3.835 1.735-3.835 3.869v.13c0 .48.385.869.86.869h9.361a.865.865 0 0 0 .862-.869v-.13c0-2.133-1.721-3.87-3.836-3.87zm-5.139-43.394h6.866l2.626 11.588H13.941l2.626-11.588zm-.255 46.524a2.117 2.117 0 0 1 1.982-1.393h3.412c.908 0 1.684.581 1.982 1.393h-7.376zM47.5 26c1.379 0 2.5-1.122 2.5-2.5 0-1.379-1.122-2.5-2.5-2.5a2.503 2.503 0 0 0-2.5 2.5c0 1.378 1.121 2.5 2.5 2.5zm0-3.23a.73.73 0 1 1-.002 1.461.73.73 0 0 1 .002-1.46z"/>
        </g>
    </g>
</svg>
